<svg width="3105" height="711" viewBox="0 0 3105 711" fill="none" xmlns="http://www.w3.org/2000/svg">
<path d="M268.644 488.736C274.36 488.736 279.643 491.786 282.501 496.736L341.259 598.511C347.418 609.177 362.814 609.177 368.972 598.511L427.731 496.736C430.589 491.786 435.871 488.736 441.587 488.736H545.498C559.752 488.737 566.89 505.97 556.811 516.05L366.724 706.137C360.476 712.385 350.346 712.385 344.097 706.137L154.011 516.05C143.932 505.97 151.071 488.737 165.325 488.736H268.644ZM76.9996 508.778C77 494.524 94.2337 487.386 104.313 497.465L212.535 605.687C222.614 615.766 215.475 633 201.221 633H92.9996C84.163 633 76.9996 625.837 76.9996 617V508.778ZM605.686 497.465C615.765 487.386 632.999 494.524 633 508.778V617C633 625.837 625.836 633 617 633H508.778C494.524 633 487.385 615.766 497.464 605.687L605.686 497.465ZM575.079 241.523C580.339 232.413 592.81 230.771 600.249 238.21L706.136 344.098C712.384 350.346 712.384 360.476 706.136 366.725L600.578 472.282C593.139 479.721 580.668 478.079 575.408 468.969L514.205 362.961C511.347 358.011 511.347 351.911 514.205 346.961L575.079 241.523ZM110.199 238.584C117.638 231.145 130.109 232.788 135.369 241.898L196.026 346.961C198.884 351.911 198.884 358.011 196.026 362.961L135.039 468.595C129.778 477.705 117.308 479.347 109.869 471.908L4.68611 366.725C-1.56204 360.476 -1.56204 350.346 4.68611 344.098L110.199 238.584ZM344.097 4.68652C350.346 -1.56156 360.476 -1.56157 366.724 4.68652L555.912 193.873C565.991 203.953 558.852 221.187 544.597 221.187H441.588C435.872 221.186 430.59 218.137 427.732 213.187L368.972 111.411C362.814 100.744 347.418 100.744 341.259 111.411L282.5 213.187C279.642 218.137 274.359 221.186 268.643 221.187H166.224C151.97 221.186 144.832 203.952 154.911 193.873L344.097 4.68652ZM201.221 77C215.475 77.0004 222.614 94.2341 212.535 104.313L104.313 212.535C94.2337 222.614 77 215.476 76.9996 201.222V93C76.9996 84.1634 84.163 77 92.9996 77H201.221ZM617 77C625.836 77 633 84.1634 633 93V201.222C632.999 215.476 615.765 222.614 605.686 212.535L497.464 104.313C487.385 94.2341 494.524 77.0004 508.778 77H617Z" fill="#0A0A0A"/>
<path d="M774 249.225H898.541V549.473C829.756 549.473 774 493.719 774 424.937V249.225Z" fill="#0A0A0A"/>
<path d="M883.543 113H789.027C781.343 113 775.113 119.229 775.113 126.913V198.049C775.113 205.733 781.343 211.962 789.027 211.962H883.543C891.227 211.962 897.457 205.733 897.457 198.049V126.913C897.457 119.229 891.227 113 883.543 113Z" fill="#6A61E0"/>
<path d="M1140.45 238.095C1212.72 238.095 1263.34 289.247 1263.34 365.418V549.458H1138.8V380.976C1138.8 355.957 1128.23 341.486 1109.89 341.486C1088.2 341.486 1075.4 357.601 1075.4 384.29V549.433H950.861V249.226H1013.93C1029.99 249.226 1044.54 258.738 1050.99 273.461C1072.65 250.617 1103.23 238.095 1140.47 238.095H1140.45Z" fill="#0A0A0A"/>
<path d="M1297.28 399.919C1297.28 303.156 1366.8 239.229 1470.77 239.229C1562.53 239.229 1628.68 295.946 1636.47 381.578H1517.47C1513.57 361.568 1493.56 345.984 1470.77 345.984C1440.19 345.984 1420.73 366.551 1420.73 399.919C1420.73 433.287 1440.19 453.854 1470.77 453.854C1494.68 453.854 1515.24 437.157 1518.03 415.477H1637.59C1628.12 502.779 1561.41 560.61 1470.77 560.61C1366.8 560.61 1297.28 496.657 1297.28 399.919Z" fill="#0A0A0A"/>
<path d="M1669.25 417.702V249.225H1793.8V419.928C1793.8 441.051 1806.04 453.294 1824.38 453.294C1842.72 453.294 1854.97 441.051 1854.97 419.928V249.225H1979.51V417.702C1979.51 505.558 1917.23 560.603 1824.38 560.603C1731.54 560.603 1669.25 505.558 1669.25 417.702Z" fill="#0A0A0A"/>
<path d="M2218.07 238.095C2311.49 238.095 2374.86 302.603 2374.86 399.34C2374.86 496.077 2311.47 560.586 2218.07 560.586C2192.84 560.586 2169.7 554.438 2149.66 543.232V657.879C2082.42 657.879 2027.88 603.364 2027.88 536.098V249.226H2089.71C2105.31 249.226 2119.58 258.054 2126.51 272.044C2150.95 250.491 2182.5 238.095 2218.04 238.095H2218.07ZM2250.32 399.34C2250.32 365.973 2226.97 341.51 2195.27 341.51C2163.57 341.51 2140.22 365.973 2140.22 399.34C2140.22 432.707 2163.57 457.17 2195.27 457.17C2226.97 457.17 2250.32 432.707 2250.32 399.34Z" fill="#0A0A0A"/>
<path d="M2411.57 249.225H2536.12V549.473C2467.33 549.473 2411.57 493.719 2411.57 424.937V249.225Z" fill="#0A0A0A"/>
<path d="M2521.17 113H2426.66C2418.97 113 2412.74 119.229 2412.74 126.913V198.049C2412.74 205.733 2418.97 211.962 2426.66 211.962H2521.17C2528.86 211.962 2535.09 205.733 2535.09 198.049V126.913C2535.09 119.229 2528.86 113 2521.17 113Z" fill="#6A61E0"/>
<path d="M2916.48 425.495H2691.78C2698.46 454.688 2717.18 469.412 2745.21 469.412C2767.45 469.412 2786.35 461.063 2794.7 446.062H2912.03C2890.91 517.781 2826.95 560.61 2745.21 560.61C2645.13 560.61 2572.83 492.761 2572.83 398.806C2572.83 304.851 2644.55 238.116 2745.21 238.116C2845.88 238.116 2919.27 304.294 2919.27 394.91C2919.27 404.928 2918.15 414.921 2916.48 425.495ZM2692.82 368.221H2798.69C2792.55 343.05 2773.6 328.732 2745.24 328.732C2718.52 328.732 2700.26 341.886 2692.82 368.221Z" fill="#0A0A0A"/>
<path d="M2956.41 197.352V185.182H3013.75V197.352H2992.38V255H2977.78V197.352H2956.41ZM3023.19 185.182H3041.4L3060.62 232.091H3061.44L3080.67 185.182H3098.88V255H3084.56V209.557H3083.98L3065.91 254.659H3056.16L3038.09 209.386H3037.51V255H3023.19V185.182Z" fill="#0A0A0A"/>
</svg>
